<svg width="130" height="56" viewBox="0 0 130 56" fill="none" xmlns="http://www.w3.org/2000/svg">
<rect width="130" height="56" rx="12" fill="#1DD100" fill-opacity="0.1"/>
<rect x="0.5" y="0.5" width="129" height="55" rx="11.5" stroke="#1DD100" stroke-opacity="0.4"/>
<path d="M43.0196 31.84C43.0196 32.64 42.8129 33.3133 42.3996 33.86C41.9863 34.3933 41.4263 34.8 40.7196 35.08C40.0263 35.36 39.2663 35.5 38.4396 35.5H31.5796V21.3H39.1796C39.8463 21.3 40.4196 21.48 40.8996 21.84C41.3929 22.1867 41.7663 22.64 42.0196 23.2C42.2863 23.7467 42.4196 24.32 42.4196 24.92C42.4196 25.6 42.2463 26.2467 41.8996 26.86C41.5529 27.4733 41.0463 27.9267 40.3796 28.22C41.1929 28.46 41.8329 28.8933 42.2996 29.52C42.7796 30.1467 43.0196 30.92 43.0196 31.84ZM40.2396 31.32C40.2396 30.96 40.1663 30.64 40.0196 30.36C39.8729 30.0667 39.6729 29.84 39.4196 29.68C39.1796 29.5067 38.8996 29.42 38.5796 29.42H34.3396V33.16H38.4396C38.7729 33.16 39.0729 33.08 39.3396 32.92C39.6196 32.7467 39.8396 32.52 39.9996 32.24C40.1596 31.96 40.2396 31.6533 40.2396 31.32ZM34.3396 23.66V27.24H38.0196C38.3263 27.24 38.6063 27.1667 38.8596 27.02C39.1129 26.8733 39.3129 26.6667 39.4596 26.4C39.6196 26.1333 39.6996 25.8133 39.6996 25.44C39.6996 25.08 39.6263 24.7667 39.4796 24.5C39.3463 24.2333 39.1596 24.0267 38.9196 23.88C38.6929 23.7333 38.4329 23.66 38.1396 23.66H34.3396ZM44.7743 31.58V25.02H47.4543V31C47.4543 31.8 47.601 32.4067 47.8943 32.82C48.1876 33.22 48.621 33.42 49.1943 33.42C49.541 33.42 49.881 33.3533 50.2143 33.22C50.561 33.0733 50.8743 32.86 51.1543 32.58C51.4476 32.3 51.6943 31.9467 51.8943 31.52V25.02H54.5743V32.5C54.5743 32.78 54.621 32.98 54.7143 33.1C54.821 33.22 54.9876 33.2933 55.2143 33.32V35.5C54.9476 35.54 54.721 35.5667 54.5343 35.58C54.361 35.6067 54.201 35.62 54.0543 35.62C53.5743 35.62 53.181 35.5133 52.8743 35.3C52.581 35.0733 52.4076 34.7667 52.3543 34.38L52.2943 33.54C51.8276 34.2467 51.2276 34.7867 50.4943 35.16C49.761 35.52 48.9543 35.7 48.0743 35.7C46.9943 35.7 46.1743 35.3533 45.6143 34.66C45.0543 33.9533 44.7743 32.9267 44.7743 31.58ZM61.0976 35.7C60.2042 35.7 59.3509 35.5533 58.5376 35.26C57.7242 34.9667 57.0242 34.5333 56.4376 33.96L57.3976 32.22C58.0242 32.7267 58.6376 33.1 59.2376 33.34C59.8509 33.58 60.4376 33.7 60.9976 33.7C61.5176 33.7 61.9309 33.6067 62.2376 33.42C62.5576 33.2333 62.7176 32.9533 62.7176 32.58C62.7176 32.3267 62.6309 32.1333 62.4576 32C62.2842 31.8533 62.0309 31.7267 61.6976 31.62C61.3776 31.5133 60.9842 31.3933 60.5176 31.26C59.7442 31.0067 59.0976 30.76 58.5776 30.52C58.0576 30.28 57.6642 29.98 57.3976 29.62C57.1442 29.2467 57.0176 28.7733 57.0176 28.2C57.0176 27.5067 57.1909 26.9133 57.5376 26.42C57.8976 25.9133 58.3909 25.52 59.0176 25.24C59.6576 24.96 60.4042 24.82 61.2576 24.82C62.0042 24.82 62.7109 24.94 63.3776 25.18C64.0442 25.4067 64.6509 25.78 65.1976 26.3L64.1176 28C63.5842 27.5867 63.0776 27.2867 62.5976 27.1C62.1176 26.9 61.6309 26.8 61.1376 26.8C60.8576 26.8 60.5909 26.8333 60.3376 26.9C60.0976 26.9667 59.8976 27.08 59.7376 27.24C59.5909 27.3867 59.5176 27.6 59.5176 27.88C59.5176 28.1333 59.5842 28.3333 59.7176 28.48C59.8642 28.6133 60.0776 28.7333 60.3576 28.84C60.6509 28.9467 61.0042 29.0667 61.4176 29.2C62.2576 29.44 62.9642 29.6867 63.5376 29.94C64.1242 30.1933 64.5642 30.5067 64.8576 30.88C65.1509 31.24 65.2976 31.74 65.2976 32.38C65.2976 33.42 64.9176 34.2333 64.1576 34.82C63.3976 35.4067 62.3776 35.7 61.0976 35.7Z" fill="#1DD100"/>
<path d="M80 33C80 33.5304 80.2107 34.0391 80.5858 34.4142C80.9609 34.7893 81.4696 35 82 35C82.5304 35 83.0391 34.7893 83.4142 34.4142C83.7893 34.0391 84 33.5304 84 33M80 33C80 32.4696 80.2107 31.9609 80.5858 31.5858C80.9609 31.2107 81.4696 31 82 31C82.5304 31 83.0391 31.2107 83.4142 31.5858C83.7893 31.9609 84 32.4696 84 33M80 33H78V22C78 21.7348 78.1054 21.4804 78.2929 21.2929C78.4804 21.1054 78.7348 21 79 21H93C94.3261 21 95.5979 21.7375 96.5355 23.0503C97.4732 24.363 98 26.1435 98 28M84 33H92M92 33C92 33.5304 92.2107 34.0391 92.5858 34.4142C92.9609 34.7893 93.4696 35 94 35C94.5304 35 95.0391 34.7893 95.4142 34.4142C95.7893 34.0391 96 33.5304 96 33M92 33C92 32.4696 92.2107 31.9609 92.5858 31.5858C92.9609 31.2107 93.4696 31 94 31C94.5304 31 95.0391 31.2107 95.4142 31.5858C95.7893 31.9609 96 32.4696 96 33M96 33H98V28M98 28H93.5L92 21M78 26H93M83 21V26M88 21V26" stroke="#1DD100" stroke-width="1.5" stroke-linecap="round" stroke-linejoin="round"/>
</svg>
